inDegrees=yes
name=ik_S50_A09_T01
DataType=double
version=3
OpenSimVersion=4.3-2021-08-27-4bc7ad9
endheader
time	pelvis_tilt	pelvis_list	pelvis_rotation	pelvis_tx	pelvis_ty	pelvis_tz	hip_flexion_r	hip_adduction_r	hip_rotation_r	knee_angle_r	knee_angle_r_beta	ankle_angle_r	subtalar_angle_r	mtp_angle_r	hip_flexion_l	hip_adduction_l	hip_rotation_l	knee_angle_l	knee_angle_l_beta	ankle_angle_l	subtalar_angle_l	mtp_angle_l	lumbar_extension	lumbar_bending	lumbar_rotation	arm_flex_r	arm_add_r	arm_rot_r	elbow_flex_r	pro_sup_r	wrist_flex_r	wrist_dev_r	arm_flex_l	arm_add_l	arm_rot_l	elbow_flex_l	pro_sup_l	wrist_flex_l	wrist_dev_l
24.77999999999956	-4.199099905592682	-1.949773468461374	34.81175042592685	0	0.9399999999999999	0	40.26889048796714	-10.12220693230637	-9.968609417409533	50.6336041357621	0.8837231043204665	0	0	0	40.26889048796714	-10.12220693230637	-9.968609417409533	50.6336041357621	0.8837231043204665	0	0	0	-3.345187785150784	-0.845388045167603	-0.4489324861082228	49.41598888081035	-20.13322926590889	16.2485643639815	96.23028632487308	47.22575956080301	0	0	52.53159695351999	-10.23254195950523	7.437119347853735	52.98360903496643	105.8350140428692	0	0
24.79999999999956	-4.211896607568792	-1.952138357650028	34.83324842799827	0	0.9399999999999999	0	40.27013864725392	-10.12209513697828	-9.968627857995713	50.6343783516002	0.8837366169359625	0	0	0	40.27013864725392	-10.12209513697828	-9.968627857995713	50.6343783516002	0.8837366169359625	0	0	0	-3.358202587328646	-0.8370702804705685	-0.4819733070254256	49.55468988786344	-20.10023097057518	16.52572005786593	96.13147170694418	47.07193240767776	0	0	52.51772826688862	-10.2439389824978	7.423658776719891	53.04771772110907	105.8963466454757	0	0
24.81999999999956	-4.206642467142744	-1.961182384818641	34.86515654750072	0	0.9399999999999999	0	40.27150810897837	-10.12197256721872	-9.96864808340769	50.63522787961978	0.883751443996992	0	0	0	40.27150810897837	-10.12197256721872	-9.96864808340769	50.63522787961978	0.883751443996992	0	0	0	-3.360116135039171	-0.844892567456883	-0.5108699832716496	49.63868560742998	-20.05317005232495	16.71353985197043	96.052692233451	46.75223604499054	0	0	52.4845498768637	-10.26630730474936	7.427275061250569	53.1270188889949	106.0673728684811	0	0
24.83999999999956	-4.21282055714582	-1.966491644462232	34.87698733144797	0	0.9399999999999999	0	40.26105742795098	-10.12269054879772	-9.968512773202482	50.6285385980432	0.8836346940088878	0	0	0	40.26105742795098	-10.12269054879772	-9.968512773202482	50.6285385980432	0.8836346940088878	0	0	0	-3.366754782568981	-0.8469645538218445	-0.5296085161356282	49.74348447057859	-20.08418943273044	16.86135154470869	96.13527611381333	46.61029523682985	0	0	52.48452466813217	-10.28494165682971	7.406892418791288	53.10866333849063	106.0984866117641	0	0
24.85999999999956	-4.196022745543685	-1.97714859372781	34.90226211334451	0	0.9399999999999999	0	40.26197974348214	-10.12260798695017	-9.968526393069954	50.62911197095487	0.8836447012540383	0	0	0	40.26197974348214	-10.12260798695017	-9.968526393069954	50.62911197095487	0.8836447012540383	0	0	0	-3.359840731753466	-0.863404224725364	-0.55120687162778	49.76519381057752	-20.04527087770829	16.99616268863408	95.95010050222962	46.36271861120647	0	0	52.42416806903544	-10.32405792063482	7.380786961397184	53.17431793616903	106.1247885105775	0	0
24.87999999999956	-4.200670749850799	-1.985718121059982	34.90022305310231	0	0.9399999999999999	0	40.26275273574667	-10.12253934577768	-9.968537748455384	50.62959596601775	0.8836531485614488	0	0	0	40.26275273574667	-10.12253934577768	-9.968537748455384	50.62959596601775	0.8836531485614488	0	0	0	-3.369050783291634	-0.8665573058468898	-0.5644805330397727	49.85897181752512	-20.0881158562751	17.11291141446458	95.92321683502703	46.44482367184985	0	0	52.40687237999809	-10.34420390549488	7.337429245129905	53.19818012637834	106.1339304626463	0	0
24.89999999999956	-4.209270127277855	-1.991361022174391	34.88556227985788	0	0.9399999999999999	0	40.26391244533666	-10.12243570924777	-9.968554857006573	50.63031761005882	0.8836657436259929	0	0	0	40.26391244533666	-10.12243570924777	-9.968554857006573	50.63031761005882	0.8836657436259929	0	0	0	-3.380114808803738	-0.8643666038169043	-0.5850206594300253	49.97289220874971	-20.12876229028276	17.27406101811066	95.86719437954197	46.44956607148591	0	0	52.39000746155488	-10.3486498637522	7.269677857095878	53.22906888199268	106.1769243192674	0	0
24.91999999999956	-4.204827890478202	-1.995028069391809	34.9124712762522	0	0.9399999999999999	0	40.26927440347676	-10.1219537494768	-9.96863428854531	50.63363055272219	0.8837235653833985	0	0	0	40.26927440347676	-10.1219537494768	-9.96863428854531	50.63363055272219	0.8837235653833985	0	0	0	-3.380508494921969	-0.8659700096020365	-0.6202954423375892	50.12099902583889	-20.3080049808229	17.44941380528368	96.2120086314183	45.83787502998597	0	0	52.36731061332742	-10.37621871564254	7.239889027632968	53.24114488234606	106.3108184529189	0	0
24.93999999999956	-4.203759623922735	-2.004894813234719	34.90820933428434	0	0.9399999999999999	0	40.2721978743837	-10.12169211515504	-9.96867748675292	50.63544132433993	0.8837551693101297	0	0	0	40.2721978743837	-10.12169211515504	-9.96867748675292	50.63544132433993	0.8837551693101297	0	0	0	-3.387158467218323	-0.8701704616116476	-0.6699306808652327	50.3115142770048	-20.41735503936387	17.66631058274245	96.44454441223597	45.4118600744128	0	0	52.35834358915126	-10.44541461546245	7.143192404677453	53.25074027900394	106.5405873726891	0	0
24.95999999999956	-4.198689608334752	-2.018635769731527	34.9290795603464	0	0.9399999999999999	0	40.27410794966388	-10.12152098110828	-9.968705737683713	50.63662190637282	0.8837757743536935	0	0	0	40.27410794966388	-10.12152098110828	-9.968705737683713	50.63662190637282	0.8837757743536935	0	0	0	-3.391890712821089	-0.8820414828607157	-0.693778279722078	50.41365520313759	-20.51224374068616	17.86002478122057	96.60575080801759	45.41757380816914	0	0	52.35026399112763	-10.48995750029422	7.054234542832787	53.27274940071292	106.7075046927961	0	0
24.97999999999956	-4.20299536582044	-2.041490408157756	34.94067467885441	0	0.9399999999999999	0	40.27564422249587	-10.1213843209001	-9.968728355234074	50.63757739251162	0.8837924507327727	0	0	0	40.27564422249587	-10.1213843209001	-9.968728355234074	50.63757739251162	0.8837924507327727	0	0	0	-3.40953883195191	-0.8956747904792894	-0.7224434332861166	50.50722973844256	-20.55197673390702	18.0698642853337	96.61869106618438	45.63191443061034	0	0	52.39278616417812	-10.53224158630528	7.065550895227416	53.28735127824889	106.8549704555167	0	0
24.99999999999956	-4.199680608112573	-2.054386346630082	34.9924495226977	0	0.9399999999999999	0	40.27746364085804	-10.12122147159944	-9.96875525510198	50.63870145555538	0.8838120693338863	0	0	0	40.27746364085804	-10.12122147159944	-9.96875525510198	50.63870145555538	0.8838120693338863	0	0	0	-3.415876324483941	-0.9043692142605582	-0.7629218536184355	50.55917295248744	-20.57116372718307	18.49232186106033	96.5532773503699	45.67652056249606	0	0	52.3984116395898	-10.5773161739664	6.924043132049084	53.27337161758015	107.3233302180407	0	0
25.01999999999956	-4.204140783935345	-2.062693719156664	35.02479045696534	0	0.9399999999999999	0	40.27884111328909	-10.12109880085069	-9.968775556005609	50.63955595000208	0.8838269830754214	0	0	0	40.27884111328909	-10.12109880085069	-9.968775556005609	50.63955595000208	0.8838269830754214	0	0	0	-3.425906053952421	-0.9045672251267693	-0.809133883412664	50.57283150515165	-20.59240960129354	18.65301337455504	96.5292387357092	45.64018296610479	0	0	52.42530459084637	-10.63245038704253	6.689731284889818	53.2870534331851	107.8832634880159	0	0
25.03999999999956	-4.207756011630324	-2.077992713711236	35.0844369234348	0	0.9399999999999999	0	40.28264666088213	-10.12088121478182	-9.96882018306141	50.64208505512691	0.8838711242869787	0	0	0	40.28264666088213	-10.12088121478182	-9.96882018306141	50.64208505512691	0.8838711242869787	0	0	0	-3.43847380961535	-0.9137412642683321	-0.8125574318330576	50.56304694362287	-20.63916273123839	18.59971780714168	96.46988216729559	45.7324840896579	0	0	52.48237556335707	-10.60236545145144	6.738508184881594	53.2316423173954	108.1005192883622	0	0
25.05999999999955	-4.202467294499177	-2.083394667867204	35.13290161030937	0	0.9399999999999999	0	40.28355712911159	-10.12080020790787	-9.96883359464929	50.64264973352854	0.8838809797843019	0	0	0	40.28355712911159	-10.12080020790787	-9.96883359464929	50.64264973352854	0.8838809797843019	0	0	0	-3.437782584945392	-0.9199248379672801	-0.8259406255648347	50.54334836495701	-20.68459937959717	18.6813805250308	96.48243266573867	45.76990697600608	0	0	52.51415647709176	-10.59931335546945	6.447535912510888	53.17273333561528	108.2246574500681	0	0
25.07999999999955	-4.204646362594234	-2.080476063444031	35.14618948939424	0	0.9399999999999999	0	40.27368568485399	-10.12151073915953	-9.968702817468747	50.63637673501142	0.8837714953062056	0	0	0	40.27368568485399	-10.12151073915953	-9.968702817468747	50.63637673501142	0.8837714953062056	0	0	0	-3.436296698593355	-0.9181731007457359	-0.8342947154588525	50.56377117734318	-20.69338003874637	18.67605489245201	96.53007333116926	45.72463076922434	0	0	52.53135526116558	-10.56280850873404	6.398713354486896	53.05498377877014	108.2584100794626	0	0
25.09999999999955	-4.212103337768867	-2.073437415660527	35.21320463973032	0	0.9399999999999999	0	40.27503415423061	-10.12139119986822	-9.968722626922835	50.63721804132704	0.8837861788714308	0	0	0	40.27503415423061	-10.12139119986822	-9.968722626922835	50.63721804132704	0.8837861788714308	0	0	0	-3.438929207830585	-0.9068025541934038	-0.846527676656282	50.578824324378	-20.71396074409148	18.92029023066415	96.5323881754736	45.77761417927278	0	0	52.57566167308806	-10.52394637270956	6.56608456919967	53.00286194499623	108.0001570894912	0	0
25.11999999999955	-4.203300048802211	-2.073903693299719	35.27035253302072	0	0.9399999999999999	0	40.27539544057375	-10.12136110390579	-9.968727722540551	50.6374563901838	0.8837903388437497	0	0	0	40.27539544057375	-10.12136110390579	-9.968727722540551	50.6374563901838	0.8837903388437497	0	0	0	-3.432669881061591	-0.9105578666854581	-0.8670840577552485	50.57870565084905	-20.68657539159891	19.1360586442336	96.51839138614855	45.79103479629398	0	0	52.5775308040003	-10.50552463524608	6.778340801980828	53.02697105704763	108.0521337039927	0	0
25.13999999999955	-4.218360457618161	-2.069494546031938	35.32782186796175	0	0.9399999999999999	0	40.27793282091121	-10.12113533953243	-9.968765094879792	50.63903256165472	0.8838178482254933	0	0	0	40.27793282091121	-10.12113533953243	-9.968765094879792	50.63903256165472	0.8838178482254933	0	0	0	-3.444596131711833	-0.8930431968709677	-0.9231539826815136	50.63982581116083	-20.56789591391903	19.50429004785559	96.25886585212619	46.01122400491315	0	0	52.61680763716053	-10.49414445932795	6.931783256456647	53.06495868662276	108.3615666178331	0	0
25.15999999999955	-4.217282267603477	-2.063583610006253	35.3827307711049	0	0.9399999999999999	0	40.28098246751455	-10.12086432948989	-9.968809985548642	50.64092711756338	0.8838509144639625	0	0	0	40.28098246751455	-10.12086432948989	-9.968809985548642	50.64092711756338	0.8838509144639625	0	0	0	-3.441974459735805	-0.8848295237149446	-0.962635829811027	50.61713721597459	-20.46610901084976	19.85170159918773	95.95433050795832	46.349458545561	0	0	52.62723246249728	-10.4531746252327	7.147244435170993	53.06081727837765	108.5897759664823	0	0
